# xmcd
#
# Track frame offsets:
#	150
#	13133
#	28587
#	43081
#	60144
#	78671
#	101355
#	118008
#	131650
#	151251
#	165445
#	183308
#	203209
#	223855
#	242261
#	261075
#
# Disc length: 4004 seconds
#
# Revision: 0
# Processed by: cddbd v1.5.1PL0 Copyright (c) Steve Scherf et al.
# Submitted via: dBpowerAMP V4.0
#
DISCID=ce0fa210
DTITLE=The Corrs - Borrowed heaven
DYEAR=2004
DGENRE=R&B
TTITLE0=Summer Suntime
TTITLE1=Angel
TTITLE2=Hideaway
TTITLE3=Long Night
TTITLE4=Goodbye
TTITLE5=Time Enough For Tears
TTITLE6=Humdrum
TTITLE7=Even If
TTITLE8=Borrowed Heaven
TTITLE9=Confidence
TTITLE10=Baby Be Brave
TTITLE11=Silver Strand
TTITLE12=Runaway (Tin Tin Out Remix)
TTITLE13=When The Stars Go Blue (feat. Bono)
TTITLE14=So Young (K-Klass Remix)
TTITLE15=Breathless (Dance Mix)
EXTD=
EXTT0=
EXTT1=
EXTT2=
EXTT3=
EXTT4=
EXTT5=
EXTT6=
EXTT7=
EXTT8=
EXTT9=
EXTT10=
EXTT11=
EXTT12=
EXTT13=
EXTT14=
EXTT15=
PLAYORDER=
